<svg width="601" height="1000" viewBox="0 0 601 1000" fill="none" xmlns="http://www.w3.org/2000/svg">
<rect width="601" height="1000" fill="url(#paint0_linear_261_62)"/>
<path d="M301 380C367.274 380 421 433.726 421 500C421 524.465 413.677 547.218 401.106 566.191C398.712 565.509 396.184 565.143 393.571 565.143C378.423 565.143 366.143 577.423 366.143 592.571C366.143 595.184 366.509 597.712 367.191 600.106C348.218 612.677 325.465 620 301 620C234.726 620 181 566.274 181 500C181 433.726 234.726 380 301 380Z" fill="#FAFAFA"/>
<circle cx="393.571" cy="592.571" r="20.5714" fill="#5EB472"/>
<g clip-path="url(#clip0_261_62)">
<path d="M305.786 498.924L320.361 472.612C322.183 469.322 323.095 467.677 324.517 466.618C324.985 466.271 325.488 465.974 326.018 465.733C327.631 465 329.507 465 333.261 465H345.044C354.887 465 359.808 465 362.247 467.68C363.015 468.525 363.599 469.521 363.963 470.604C365.115 474.044 362.724 478.358 357.944 486.988L337.478 523.935C332.453 533.006 329.94 537.542 326.309 538.328C325.168 538.576 323.987 538.576 322.847 538.328C319.215 537.542 316.703 533.006 311.678 523.935L305.786 513.299C304.06 510.183 303.197 508.626 303.027 506.944C302.971 506.39 302.971 505.832 303.027 505.279C303.197 503.596 304.06 502.039 305.786 498.924Z" fill="url(#paint1_linear_261_62)"/>
<path d="M292.678 465C302.52 465 307.442 465 309.881 467.68C310.649 468.524 311.233 469.521 311.596 470.605C312.748 474.044 310.358 478.359 305.578 486.988L295.87 504.511C295.793 504.65 295.717 504.79 295.639 504.931C295.574 505.048 295.51 505.164 295.446 505.279L285.112 523.935C280.087 533.006 277.574 537.542 273.942 538.329C272.801 538.576 271.621 538.576 270.48 538.329C266.849 537.542 264.337 533.006 259.312 523.935L253.419 513.299C252.901 512.363 252.462 511.567 252.095 510.867C251.126 509.158 250.038 507.193 248.785 504.931C244.247 496.739 241.978 492.643 241.362 489.389C239.446 479.263 245.303 469.279 255.059 466.041C258.195 465 262.868 465 272.212 465C274.486 465 276.483 465 278.248 465.015C279.016 465.001 279.888 465 280.894 465H292.678Z" fill="url(#paint2_linear_261_62)"/>
</g>
<defs>
<linearGradient id="paint0_linear_261_62" x1="-1.02782e-05" y1="500" x2="601" y2="500.001" gradientUnits="userSpaceOnUse">
<stop stop-color="#9013FE"/>
<stop offset="1" stop-color="#6610F2"/>
</linearGradient>
<linearGradient id="paint1_linear_261_62" x1="312.088" y1="466.946" x2="380.378" y2="502.945" gradientUnits="userSpaceOnUse">
<stop stop-color="#9013FE"/>
<stop offset="1" stop-color="#6610F2"/>
</linearGradient>
<linearGradient id="paint2_linear_261_62" x1="251.533" y1="466.946" x2="325.125" y2="511.83" gradientUnits="userSpaceOnUse">
<stop stop-color="#9013FE"/>
<stop offset="1" stop-color="#6610F2"/>
</linearGradient>
<clipPath id="clip0_261_62">
<rect width="124" height="74" fill="white" transform="translate(241 465)"/>
</clipPath>
</defs>
</svg>
