<svg width="601" height="1000" viewBox="0 0 601 1000" fill="none" xmlns="http://www.w3.org/2000/svg">
<rect width="601" height="1000" fill="url(#paint0_linear_261_62)"/>
<path d="M301 420C345.183 420 381 455.817 381 500C381 516.309 376.118 531.478 367.738 544.127C366.142 543.672 364.456 543.429 362.714 543.429C352.615 543.429 344.429 551.615 344.429 561.714C344.429 563.456 344.672 565.142 345.127 566.738C332.478 575.118 317.309 580 301 580C256.817 580 221 544.183 221 500C221 455.817 256.817 420 301 420Z" fill="#FAFAFA"/>
<circle cx="362.714" cy="561.714" r="13.7143" fill="#5EB472"/>
<g clip-path="url(#clip0_261_62)">
<path d="M304.19 499.282L313.907 481.742C315.122 479.548 315.73 478.451 316.678 477.746C316.99 477.514 317.325 477.316 317.678 477.155C318.754 476.667 320.005 476.667 322.507 476.667H330.363C336.925 476.667 340.205 476.667 341.832 478.454C342.343 479.016 342.733 479.68 342.975 480.403C343.743 482.696 342.149 485.572 338.963 491.325L325.318 515.956C321.968 522.004 320.293 525.028 317.872 525.552C317.112 525.717 316.325 525.717 315.564 525.552C313.143 525.028 311.468 522.004 308.118 515.957L304.19 508.866C303.04 506.789 302.465 505.751 302.351 504.629C302.314 504.26 302.314 503.888 302.351 503.519C302.465 502.398 303.04 501.359 304.19 499.282Z" fill="url(#paint1_linear_261_62)"/>
<path d="M295.452 476.667C302.014 476.667 305.295 476.666 306.921 478.453C307.433 479.016 307.822 479.681 308.064 480.403C308.832 482.696 307.238 485.573 304.052 491.325L297.58 503.008C297.529 503.1 297.478 503.193 297.426 503.287C297.383 503.365 297.34 503.442 297.297 503.519L290.408 515.956C287.058 522.004 285.382 525.028 282.961 525.552C282.201 525.717 281.414 525.717 280.654 525.552C278.233 525.028 276.558 522.004 273.208 515.956L269.28 508.866C268.934 508.242 268.642 507.711 268.397 507.244C267.751 506.105 267.025 504.795 266.19 503.287C263.165 497.826 261.652 495.095 261.241 492.926C259.964 486.175 263.869 479.519 270.373 477.361C272.463 476.667 275.578 476.667 281.808 476.667C283.324 476.667 284.655 476.667 285.832 476.677C286.344 476.667 286.925 476.667 287.596 476.667H295.452Z" fill="url(#paint2_linear_261_62)"/>
</g>
<defs>
<linearGradient id="paint0_linear_261_62" x1="-1.02782e-05" y1="500" x2="601" y2="500.001" gradientUnits="userSpaceOnUse">
<stop stop-color="#9013FE"/>
<stop offset="1" stop-color="#6610F2"/>
</linearGradient>
<linearGradient id="paint1_linear_261_62" x1="308.392" y1="477.964" x2="353.919" y2="501.964" gradientUnits="userSpaceOnUse">
<stop stop-color="#9013FE"/>
<stop offset="1" stop-color="#6610F2"/>
</linearGradient>
<linearGradient id="paint2_linear_261_62" x1="268.022" y1="477.964" x2="317.083" y2="507.887" gradientUnits="userSpaceOnUse">
<stop stop-color="#9013FE"/>
<stop offset="1" stop-color="#6610F2"/>
</linearGradient>
<clipPath id="clip0_261_62">
<rect width="82.6667" height="49.3333" fill="white" transform="translate(261 476.667)"/>
</clipPath>
</defs>
</svg>
