<svg width="240" height="80" viewBox="0 0 240 80" fill="none" xmlns="http://www.w3.org/2000/svg">
<path d="M84.8172 63.9246V22.1013H87.0875V28.6806C87.3556 28.3891 87.6033 28.0795 87.8288 27.7539C88.7565 25.8282 90.2139 24.2068 92.0302 23.0798C93.8465 21.9528 95.9465 21.3669 98.0839 21.3908C103.258 21.2364 107.459 23.1515 109.93 27.7539C111.502 30.613 112.367 33.8068 112.453 37.0686C112.539 40.3304 111.843 43.5654 110.424 46.5033C108.123 51.6618 102.439 54.2255 96.3541 53.2834C94.4605 53.1221 92.6374 52.4892 91.0511 51.4425C89.4649 50.3958 88.1659 48.9686 87.2728 47.291V63.9246H84.8172ZM87.0875 36.8969C87.2883 38.9356 87.3655 40.3874 87.5972 41.8083C88.4929 47.3991 91.798 50.7196 96.9873 51.322C99.4239 51.7225 101.924 51.2657 104.062 50.0293C106.199 48.793 107.842 46.8537 108.71 44.5419C109.707 42.164 110.187 39.6012 110.117 37.0236C110.048 34.446 109.431 31.9127 108.308 29.5918C107.382 27.5197 105.806 25.8054 103.82 24.7077C101.833 23.6099 99.5434 23.1884 97.2962 23.5067C95.1863 23.6596 93.1765 24.4661 91.5462 25.814C89.9159 27.162 88.7461 28.9845 88.1995 31.0281C87.7158 32.9613 87.3445 34.9208 87.0875 36.8969Z" fill="#FAFAFA"/>
<path d="M158.765 42.5806C158.421 45.5252 157.019 48.2447 154.82 50.2333C152.621 52.2219 149.775 53.3442 146.811 53.3916C137.297 53.8704 132.834 47.5536 132.123 40.2639C131.63 36.3052 132.273 32.2879 133.977 28.6806C135.163 26.2063 137.106 24.1737 139.524 22.877C141.943 21.5804 144.711 21.0869 147.429 21.4681C150.012 21.6871 152.461 22.7133 154.429 24.4013C156.397 26.0893 157.784 28.3537 158.394 30.8737C158.877 33.1689 159.233 35.4891 159.46 37.8237H134.455C133.992 44.4339 137.544 49.7467 142.579 51.0286C148.849 52.5731 154.209 49.8548 156.155 43.8933C156.587 42.3643 157.375 42.1481 158.765 42.5806ZM134.455 35.7078H156.803C156.664 28.6652 152.278 23.5686 146.332 23.4913C139.598 23.3832 134.749 28.2945 134.455 35.7078Z" fill="#FAFAFA"/>
<path d="M163.367 42.735H165.56C165.641 44.3487 166.166 45.9089 167.076 47.244C167.986 48.5791 169.246 49.6374 170.719 50.3027C172.568 51.1348 174.58 51.5391 176.607 51.4857C178.634 51.4322 180.623 50.9223 182.425 49.9938C183.408 49.551 184.231 48.8175 184.783 47.8923C185.335 46.9672 185.591 45.8948 185.514 44.82C185.571 43.7834 185.288 42.7566 184.708 41.8954C184.128 41.0342 183.284 40.3855 182.302 40.0477C179.893 39.1519 177.329 38.6577 174.873 37.87C172.318 37.1424 169.82 36.2288 167.398 35.1364C163.444 33.2058 163.197 25.6844 167.676 23.306C169.969 22.0118 172.55 21.3126 175.183 21.2721C177.817 21.2317 180.418 21.8512 182.75 23.0743C184.163 23.8551 185.304 25.0479 186.021 26.4938C186.739 27.9397 186.998 29.57 186.765 31.1672H184.881C184.881 31.0745 184.711 30.9973 184.711 30.9046C184.48 24.8968 179.445 23.0434 174.039 23.5686C172.426 23.7676 170.858 24.243 169.406 24.974C168.533 25.373 167.806 26.033 167.325 26.863C166.844 27.6929 166.632 28.6518 166.719 29.6073C166.721 30.5632 167.02 31.4949 167.573 32.2746C168.126 33.0544 168.906 33.644 169.807 33.9626C172.186 34.8275 174.672 35.3835 177.113 36.063C179.074 36.6036 181.113 36.9588 183.012 37.6075C184.353 38.047 185.529 38.8833 186.384 40.0058C187.239 41.1283 187.733 42.4839 187.8 43.8933C188.029 45.4375 187.766 47.0147 187.048 48.4009C186.33 49.7871 185.194 50.9119 183.8 51.6155C178.642 54.5345 170.147 53.7623 166.363 50.0711C165.404 49.1066 164.646 47.9618 164.132 46.7027C163.617 45.4435 163.358 44.095 163.367 42.735Z" fill="#FAFAFA"/>
<path d="M215.6 31.1671H213.546C213.546 30.8891 213.438 30.642 213.407 30.4103C213.374 28.8706 212.812 27.3891 211.817 26.2138C210.822 25.0386 209.453 24.241 207.94 23.9546C205.084 23.1354 202.039 23.282 199.275 24.3716C198.183 24.6847 197.221 25.3428 196.534 26.2474C195.846 27.152 195.47 28.2548 195.46 29.391C195.422 30.5068 195.77 31.6017 196.445 32.4909C197.12 33.38 198.082 34.0089 199.167 34.2714C202.256 35.2289 205.422 35.8158 208.557 36.6807C209.573 36.9246 210.574 37.2288 211.553 37.5919C213.016 38.1153 214.288 39.0679 215.201 40.3251C216.114 41.5824 216.626 43.0858 216.671 44.6389C216.716 46.192 216.292 47.7226 215.453 49.0306C214.614 50.3387 213.401 51.3633 211.971 51.9706C209.791 52.9603 207.429 53.4839 205.035 53.5078C202.642 53.5318 200.269 53.0555 198.071 52.1096C196.262 51.3297 194.736 50.0146 193.698 48.3413C192.66 46.668 192.159 44.7168 192.264 42.7503H193.128H194.271C194.643 44.5423 195.445 46.2168 196.61 47.6287C197.774 49.0406 199.265 50.1473 200.954 50.8531C202.642 51.559 204.477 51.8425 206.3 51.6793C208.123 51.5161 209.878 50.9111 211.415 49.9165C212.35 49.4303 213.127 48.6859 213.653 47.7716C214.178 46.8573 214.431 45.8115 214.38 44.7581C214.426 43.7209 214.133 42.6968 213.545 41.8411C212.957 40.9855 212.106 40.3449 211.121 40.0167C208.712 39.1209 206.148 38.6421 203.692 37.8545C201.123 37.1381 198.609 36.2348 196.171 35.1517C192.31 33.2521 192.001 25.7924 196.403 23.414C198.724 22.0656 201.356 21.3413 204.041 21.3115C206.725 21.2817 209.372 21.9475 211.723 23.2441C213.068 24.0468 214.15 25.2231 214.839 26.6297C215.527 28.0364 215.791 29.6128 215.6 31.1671Z" fill="#FAFAFA"/>
<path d="M81.0642 52.6348C80.2556 52.941 79.3628 52.9404 78.5546 52.6331C77.7464 52.3257 77.0788 51.733 76.678 50.9668C74.1606 47.1984 71.3806 43.5999 68.7087 39.9241L67.5504 38.3797C64.3688 42.6423 61.1873 46.7351 58.2838 50.9823C57.9055 51.7145 57.2739 52.2842 56.5068 52.5854C55.7397 52.8866 54.8892 52.8986 54.1138 52.6194L66.0523 36.6036L54.9478 22.1322C55.7471 21.8436 56.6216 21.8397 57.4235 22.121C58.2254 22.4024 58.9057 22.9519 59.3494 23.6767C61.9286 27.4451 64.7858 31.0436 67.6276 34.8584C70.4848 31.0745 73.3111 27.4605 75.9521 23.723C76.3325 23.0027 76.9644 22.4473 77.7275 22.1626C78.4907 21.8778 79.3319 21.8835 80.0912 22.1786L75.7822 27.893C73.8517 30.4413 71.952 33.0051 69.9443 35.4916C69.7825 35.6365 69.6531 35.8138 69.5645 36.0121C69.4759 36.2103 69.4301 36.425 69.4301 36.6422C69.4301 36.8594 69.4759 37.0741 69.5645 37.2723C69.6531 37.4706 69.7825 37.648 69.9443 37.7928C73.6355 42.6887 77.2958 47.6 81.0642 52.6348Z" fill="#FAFAFA"/>
<path d="M131.753 21.9778V24.14C130.19 24.0375 128.624 24.2638 127.155 24.804C125.686 25.3443 124.346 26.1867 123.223 27.2767C122.099 28.3668 121.217 29.6803 120.632 31.1325C120.048 32.5847 119.774 34.1434 119.83 35.7078C119.83 40.7942 119.83 45.8805 119.83 50.9668C119.83 51.5074 119.83 52.0479 119.83 52.6966H117.621V22.1013H119.783V28.3717C122.455 23.8002 126.579 22.1013 131.753 21.9778Z" fill="#FAFAFA"/>
<path d="M25.5109 36.4028C25.8352 34.8583 26.036 33.1749 26.4839 31.5996C29.1557 22.1013 40.044 18.1475 47.5345 24.0318C51.9207 27.4759 53.0173 32.3563 52.801 37.8545H28.0901C27.6885 47.6771 34.7775 53.6078 43.8433 50.5807C45.3139 50.0546 46.6304 49.1707 47.6739 48.0085C48.7174 46.8464 49.455 45.4427 49.8203 43.9242C50.299 42.3797 51.0713 42.1172 52.5385 42.5651C52.2968 44.4453 51.632 46.2462 50.5941 47.8325C49.5562 49.4188 48.1722 50.7492 46.5461 51.7236C43.8594 53.1928 40.7769 53.7748 37.7395 53.3865C34.702 52.9981 31.8651 51.6592 29.6345 49.5613C27.4278 47.0801 26.0934 43.945 25.8352 40.6345C25.8352 40.1094 25.6344 39.5843 25.5263 39.0901C25.516 38.1737 25.5109 37.2779 25.5109 36.4028ZM28.121 35.7387H50.4689C50.3299 28.6188 45.8356 23.5685 39.8432 23.5222C33.1713 23.4295 28.399 28.3717 28.1055 35.7078L28.121 35.7387Z" fill="#FAFAFA"/>
</svg>
