<svg width="80" height="80" viewBox="0 0 80 80" fill="none" xmlns="http://www.w3.org/2000/svg">
<circle cx="40" cy="40" r="40" fill="black"/>
<g clip-path="url(#clip0_26_149)">
<path d="M40.8987 38.9607L45.6002 30.0718C46.1882 28.9601 46.4823 28.4043 46.9411 28.0468C47.0918 27.9293 47.2541 27.829 47.4251 27.7477C47.9454 27.5 48.5508 27.5 49.7615 27.5H53.5627C56.7379 27.5 58.3253 27.5 59.1121 28.4055C59.3597 28.6908 59.5481 29.0272 59.6655 29.3933C60.037 30.5553 59.2658 32.0129 57.724 34.9282L51.1218 47.4103C49.5009 50.475 48.6904 52.0074 47.5189 52.2731C47.1509 52.3566 46.7702 52.3566 46.4022 52.2731C45.2307 52.0074 44.4202 50.475 42.7992 47.4104L40.8987 43.8171C40.3421 42.7647 40.0637 42.2385 40.0087 41.6701C39.9905 41.4831 39.9905 41.2947 40.0087 41.1076C40.0637 40.5393 40.3421 40.0131 40.8987 38.9607Z" fill="#FAFAFA"/>
<path d="M36.6702 27.5C39.8453 27.5 41.4331 27.4999 42.2197 28.4054C42.4675 28.6906 42.6559 29.0274 42.773 29.3934C43.1445 30.5554 42.3734 32.0132 40.8315 34.9283L37.7 40.8484C37.6753 40.8952 37.6506 40.9425 37.6255 40.9901C37.6046 41.0296 37.5838 41.0688 37.5631 41.1078L34.2296 47.4103C32.6086 50.475 31.7979 52.0074 30.6265 52.2732C30.2585 52.3566 29.8778 52.3566 29.5098 52.2732C28.3384 52.0074 27.528 50.475 25.907 47.4103L24.0062 43.8171C23.839 43.501 23.6976 43.232 23.5791 42.9955C23.2664 42.4181 22.9154 41.7543 22.5112 40.9901C21.0474 38.2227 20.3154 36.8388 20.1167 35.7394C19.4986 32.3184 21.388 28.9455 24.5353 27.8516C25.5468 27.5001 27.0541 27.5 30.0683 27.5C30.8018 27.5 31.4461 27.5 32.0156 27.5051C32.2633 27.5003 32.5445 27.5 32.8692 27.5H36.6702Z" fill="#FAFAFA"/>
</g>
<defs>
<clipPath id="clip0_26_149">
<rect width="40" height="25" fill="white" transform="translate(20 27.5)"/>
</clipPath>
</defs>
</svg>
