<svg width="32" height="32" viewBox="0 0 32 32" fill="none" xmlns="http://www.w3.org/2000/svg">
<circle cx="16" cy="16" r="16" fill="black"/>
<g clip-path="url(#clip0_26_149)">
<path d="M16.3595 15.5843L18.2401 12.0287C18.4753 11.584 18.5929 11.3617 18.7764 11.2187C18.8367 11.1717 18.9016 11.1316 18.97 11.0991C19.1782 11 19.4203 11 19.9046 11H21.4251C22.6951 11 23.3301 11 23.6448 11.3622C23.7439 11.4763 23.8192 11.6109 23.8662 11.7573C24.0148 12.2221 23.7063 12.8052 23.0896 13.9713L20.4487 18.9641C19.8003 20.19 19.4761 20.8029 19.0076 20.9093C18.8604 20.9427 18.7081 20.9427 18.5609 20.9093C18.0923 20.8029 17.7681 20.19 17.1197 18.9642L16.3595 17.5268C16.1368 17.1059 16.0255 16.8954 16.0035 16.6681C15.9962 16.5932 15.9962 16.5179 16.0035 16.4431C16.0255 16.2157 16.1368 16.0052 16.3595 15.5843Z" fill="#FAFAFA"/>
<path d="M14.6681 11C15.9381 11 16.5732 11 16.8879 11.3621C16.987 11.4763 17.0624 11.6109 17.1092 11.7574C17.2578 12.2222 16.9494 12.8053 16.3326 13.9713L15.08 16.3394C15.0701 16.3581 15.0602 16.377 15.0502 16.3961C15.0418 16.4118 15.0335 16.4275 15.0253 16.4431L13.6918 18.9641C13.0435 20.19 12.7192 20.8029 12.2506 20.9093C12.1034 20.9427 11.9511 20.9427 11.8039 20.9093C11.3354 20.8029 11.0112 20.19 10.3628 18.9641L9.60249 17.5268C9.5356 17.4004 9.47902 17.2928 9.43164 17.1982C9.30657 16.9672 9.16615 16.7017 9.00447 16.3961C8.41896 15.2891 8.12617 14.7355 8.0467 14.2958C7.79944 12.9274 8.55521 11.5782 9.81412 11.1407C10.2187 11 10.8216 11 12.0273 11C12.3207 11 12.5784 11 12.8063 11.002C12.9053 11.0001 13.0178 11 13.1477 11H14.6681Z" fill="#FAFAFA"/>
</g>
<defs>
<clipPath id="clip0_26_149">
<rect width="16" height="10" fill="white" transform="translate(8 11)"/>
</clipPath>
</defs>
</svg>
