<svg width="64" height="64" viewBox="0 0 64 64" fill="none" xmlns="http://www.w3.org/2000/svg">
<path d="M48 10.6667H16C13.0545 10.6667 10.6667 13.0546 10.6667 16.0001V48.0001C10.6667 50.9456 13.0545 53.3334 16 53.3334H48C50.9455 53.3334 53.3333 50.9456 53.3333 48.0001V16.0001C53.3333 13.0546 50.9455 10.6667 48 10.6667Z" stroke="#FAFAFA" stroke-width="2" stroke-linecap="round" stroke-linejoin="round"/>
<path d="M40 24.0001H24V40.0001H40V24.0001Z" stroke="#FAFAFA" stroke-width="2" stroke-linecap="round" stroke-linejoin="round"/>
<path d="M24 2.66675V10.6667" stroke="#FAFAFA" stroke-width="2" stroke-linecap="round" stroke-linejoin="round"/>
<path d="M40 2.66675V10.6667" stroke="#FAFAFA" stroke-width="2" stroke-linecap="round" stroke-linejoin="round"/>
<path d="M24 53.3335V61.3335" stroke="#FAFAFA" stroke-width="2" stroke-linecap="round" stroke-linejoin="round"/>
<path d="M40 53.3335V61.3335" stroke="#FAFAFA" stroke-width="2" stroke-linecap="round" stroke-linejoin="round"/>
<path d="M53.3333 24.0001H61.3333" stroke="#FAFAFA" stroke-width="2" stroke-linecap="round" stroke-linejoin="round"/>
<path d="M53.3333 37.3335H61.3333" stroke="#FAFAFA" stroke-width="2" stroke-linecap="round" stroke-linejoin="round"/>
<path d="M2.66667 24.0001H10.6667" stroke="#FAFAFA" stroke-width="2" stroke-linecap="round" stroke-linejoin="round"/>
<path d="M2.66667 37.3335H10.6667" stroke="#FAFAFA" stroke-width="2" stroke-linecap="round" stroke-linejoin="round"/>
</svg>
