<svg width="24" height="24" viewBox="0 0 24 24" fill="none" xmlns="http://www.w3.org/2000/svg">
<g clip-path="url(#clip0_168_5)">
<path d="M21.7536 14.1816L17.8536 12.48C16.9104 12.0696 16.1593 11.316 15.7489 10.3752L14.0472 6.4752C13.9152 6.1728 13.4856 6.1728 13.3536 6.4752L11.652 10.3752C11.2416 11.3184 10.488 12.0696 9.54725 12.48L5.64245 14.184C5.34005 14.316 5.34005 14.7432 5.64245 14.8752L9.61445 16.632C10.5552 17.0472 11.304 17.8032 11.7096 18.7488L13.356 22.5744C13.4856 22.8792 13.9176 22.8792 14.0496 22.5744L15.7489 18.6816C16.1593 17.7384 16.9128 16.9872 17.8536 16.5768L21.7536 14.8752C22.056 14.7432 22.056 14.3136 21.7536 14.1816Z" fill="#808080"/>
<path d="M6.06718 11.6424L6.86398 9.816C7.05598 9.3744 7.40878 9.0216 7.85038 8.8296L9.67918 8.0328C9.82078 7.9704 9.82078 7.7688 9.67918 7.7088L7.85038 6.912C7.40878 6.72 7.05598 6.3672 6.86398 5.9256L6.06718 4.0968C6.00478 3.9552 5.80318 3.9552 5.74318 4.0968L4.94638 5.9256C4.75438 6.3672 4.40158 6.72 3.95998 6.912L2.12878 7.7112C1.98718 7.7736 1.98718 7.9728 2.12878 8.0352L3.99118 8.8584C4.43278 9.0528 4.78318 9.408 4.97278 9.8496L5.74558 11.6424C5.80798 11.784 6.00958 11.7864 6.06958 11.6424H6.06718Z" fill="#808080"/>
<path d="M9.57354 3.34799L10.5623 3.78479C10.7975 3.88799 10.9823 4.07759 11.0831 4.31039L11.4935 5.26319C11.5271 5.33999 11.6327 5.33999 11.6663 5.26319L12.0887 4.29359C12.1919 4.05839 12.3791 3.87119 12.6119 3.77039L13.5815 3.34799C13.6559 3.31439 13.6559 3.20879 13.5815 3.17519L12.6119 2.75279C12.3767 2.64959 12.1895 2.46239 12.0887 2.22959L11.6663 1.25999C11.6327 1.18559 11.5271 1.18559 11.4935 1.25999L11.0711 2.22959C10.9679 2.46479 10.7807 2.65199 10.5479 2.75279L9.57594 3.17759C9.50154 3.21119 9.50154 3.31679 9.57594 3.35039L9.57354 3.34799Z" fill="#808080"/>
</g>
<defs>
<clipPath id="clip0_168_5">
<rect width="24" height="24" fill="white"/>
</clipPath>
</defs>
</svg>
