<svg width="40" height="24" viewBox="0 0 40 24" fill="none" xmlns="http://www.w3.org/2000/svg">
<g clip-path="url(#clip0_3_32)">
<path d="M20.8987 11.0022L25.6002 2.46891C26.1882 1.40169 26.4823 0.868087 26.9411 0.52491C27.0918 0.412143 27.2541 0.315884 27.4251 0.237757C27.9454 0 28.5508 0 29.7615 0H33.5627C36.7379 0 38.3253 0 39.1121 0.869277C39.3597 1.14315 39.5481 1.46611 39.6655 1.81755C40.037 2.93305 39.2658 4.3324 37.724 7.1311L31.1218 19.1139C29.5009 22.056 28.6904 23.5271 27.5189 23.7822C27.1509 23.8624 26.7702 23.8624 26.4022 23.7822C25.2307 23.5271 24.4202 22.056 22.7992 19.114L20.8987 15.6644C20.3421 14.6541 20.0637 14.149 20.0087 13.6033C19.9905 13.4238 19.9905 13.2429 20.0087 13.0633C20.0637 12.5177 20.3421 12.0126 20.8987 11.0022Z" fill="#FAFAFA"/>
<path d="M16.6702 0C19.8453 0 21.4331 -9.30627e-05 22.2197 0.86914C22.4675 1.14301 22.6559 1.46627 22.773 1.81771C23.1445 2.93318 22.3734 4.33263 20.8315 7.1312L17.7 12.8145C17.6753 12.8594 17.6506 12.9048 17.6255 12.9505C17.6046 12.9884 17.5838 13.0261 17.5631 13.0635L14.2296 19.1139C12.6086 22.056 11.7979 23.5271 10.6265 23.7822C10.2585 23.8624 9.87779 23.8624 9.50982 23.7822C8.33841 23.5271 7.528 22.056 5.90704 19.1139L4.00622 15.6644C3.83901 15.3609 3.69755 15.1027 3.57911 14.8757C3.26644 14.3214 2.91537 13.6841 2.51117 12.9505C1.04739 10.2938 0.315426 8.96527 0.116738 7.90983C-0.501401 4.6257 1.38802 1.38767 4.53531 0.337567C5.54681 9.57251e-05 7.05408 0 10.0683 0C10.8018 0 11.4461 1.92138e-05 12.0156 0.0048828C12.2633 0.000296531 12.5445 0 12.8692 0H16.6702Z" fill="#FAFAFA"/>
</g>
<defs>
<clipPath id="clip0_3_32">
<rect width="40" height="24" fill="white"/>
</clipPath>
</defs>
</svg>
