<svg width="240" height="80" viewBox="0 0 240 80" fill="none" xmlns="http://www.w3.org/2000/svg">
<path d="M53.3031 43.8571C52.9045 43.4058 52.2235 43.5291 51.6969 43.6314C50.4312 43.8522 49.0541 44.1087 47.8283 43.5941C50.0176 40.2176 51.7401 36.531 52.7035 32.64C53.054 31.1611 53.3247 29.6482 53.2732 28.1255C53.235 27.2733 53.1138 26.3659 52.5806 25.6597C51.2617 23.9601 49.3498 22.7215 47.2419 22.168C44.6091 21.47 41.7853 21.6778 39.1957 22.4602C38.9815 22.5024 38.7705 22.4083 38.5612 22.3823C36.2108 21.9164 33.6196 22.0998 31.5814 23.4293C29.1347 22.5689 26.5052 22.0495 23.9007 22.3157C21.9639 22.5121 20.0188 23.392 18.9075 25.0039C17.5023 27.0152 17.3113 29.5833 17.5355 31.9403C17.9873 35.0701 18.768 38.1511 19.7613 41.1559C20.4158 43.0292 21.1367 44.9171 22.3011 46.5534C22.8924 47.3569 23.6781 48.1669 24.7362 48.2935C25.6764 48.4056 26.5268 47.8358 27.1032 47.1605C28.0999 45.9949 29.1247 44.8505 30.1878 43.7434C30.8821 44.0762 31.6363 44.2677 32.407 44.3246C31.9901 44.8083 31.6462 45.4398 30.9818 45.6297C30.0865 45.9673 29.0384 45.9219 28.2494 46.5047C27.7942 46.8228 27.7726 47.516 28.1812 47.8812C28.9204 48.5825 30.0101 48.7335 30.9934 48.8146C32.3871 48.9185 33.7956 48.4607 34.8537 47.5679C34.8472 49.7334 34.8572 51.9054 35.1062 54.0595C35.2308 55.3209 35.7872 56.5773 36.7689 57.4263C37.6941 58.2152 39.013 58.3792 40.1874 58.1795C41.3402 57.9652 42.5245 57.6276 43.4248 56.8581C44.3816 56.0335 44.7902 54.7884 44.9796 53.5937C45.3234 51.4525 45.5842 49.3016 45.8333 47.1507C48.2967 47.5566 51.084 47.0955 52.9244 45.3375C53.3181 44.9755 53.6918 44.3489 53.3031 43.8571ZM47.8366 23.4943C49.3149 24.0429 50.6288 24.9958 51.6155 26.2019C52.0856 26.7782 52.1454 27.5525 52.1753 28.2603C52.1968 29.9485 51.8481 31.6157 51.4045 33.239C50.5557 36.2437 49.2668 39.1235 47.6472 41.8052C47.4878 42.0698 47.3134 42.3246 47.1207 42.5665C47.1057 42.4935 47.0758 42.3441 47.0609 42.2695C47.2618 41.7532 47.5559 41.2663 47.6705 40.7176C48.0758 39.1706 47.7336 37.5781 47.5874 36.0213C47.4346 34.5522 47.9479 33.1221 47.9346 31.6563C47.9927 30.9388 47.702 30.2602 47.4197 29.6158C46.3981 27.3837 44.7736 25.3984 42.689 24.0348C42.1807 23.6939 41.6126 23.4553 41.106 23.1128C43.3218 22.6485 45.7005 22.7086 47.8366 23.4943ZM46.4861 36.0246C46.6157 37.7631 47.1323 39.63 46.2934 41.2792C45.1689 39.0926 43.7155 37.0051 43.2089 34.5701C43.066 33.7958 43.0295 32.8153 43.7338 32.2764C44.6274 31.6563 45.7951 31.7959 46.8283 31.8575C46.7834 33.252 46.3433 34.6204 46.4861 36.0246ZM26.3823 46.3245C25.9787 46.7888 25.4339 47.3423 24.7462 47.2043C23.9422 46.9771 23.4306 46.2596 22.9821 45.6151C21.7712 43.7223 21.042 41.5844 20.3726 39.4628C19.6235 36.9515 18.9923 34.3997 18.6285 31.8056C18.4474 29.8317 18.5604 27.7149 19.5936 25.9568C20.3676 24.6257 21.8111 23.7767 23.3276 23.4991C25.7561 23.043 28.246 23.5268 30.5765 24.2215C29.5483 25.3253 28.7477 26.6256 28.2809 28.0493C27.6447 29.9502 27.354 31.9728 27.5069 33.9711C27.5949 35.3785 27.5567 36.7924 27.3557 38.1885C27.1032 40.0114 27.8524 41.8864 29.2377 43.1168C28.2942 44.1947 27.2959 45.2206 26.3823 46.3245ZM28.5085 39.7939C28.2709 38.7615 28.5816 37.7226 28.6164 36.6885C28.6978 35.5181 28.6131 34.3461 28.5899 33.1757C29.7094 32.4679 31.0183 31.9144 32.3754 31.9907C33.078 32.0199 33.7259 32.5052 33.8953 33.1822C34.5115 35.5798 34.7026 38.2485 33.5215 40.5195C33.1096 41.3961 32.7757 42.3035 32.4884 43.224C30.525 43.2434 28.8556 41.6201 28.5085 39.7939ZM34.6179 46.2125C33.3854 47.8439 30.9187 48.1556 29.1364 47.2676C30.0151 46.8699 31.0433 46.9008 31.8921 46.4105C32.7126 45.9787 33.0382 45.0291 33.8056 44.5405C34.6411 44.4252 35.2491 45.6395 34.6179 46.2125ZM45.1889 44.3067C44.7204 45.0437 44.8849 45.943 44.7703 46.7612C44.5012 49.0549 44.2371 51.3519 43.855 53.631C43.674 54.7235 43.1989 55.8842 42.1441 56.428C41.0628 56.9653 39.807 57.3029 38.5911 57.1195C37.4367 56.9215 36.7091 55.8696 36.3819 54.8452C36.1427 53.9865 36.1178 53.0888 36.0497 52.2041C35.9334 50.0695 35.9318 47.9299 35.9882 45.7937C36.0364 44.9593 35.5979 44.0908 34.8355 43.685C34.4667 43.4821 34.0348 43.4545 33.6229 43.422C33.9468 41.8523 34.9252 40.4968 35.2607 38.9287C35.6959 36.9888 35.455 34.9694 35.0099 33.0539C34.7922 32.0978 34.0481 31.252 33.0581 31.0199C31.5333 30.6449 29.9951 31.2277 28.6314 31.851C28.8041 29.6855 29.3971 27.4681 30.7542 25.7101C31.7525 24.4017 33.3006 23.5283 34.9534 23.3189C37.6808 22.9797 40.5445 23.7134 42.7122 25.3805C44.5028 26.7636 45.9181 28.6369 46.6805 30.7439C45.4131 30.7001 43.9763 30.6498 42.9514 31.5101C42.0212 32.2763 41.9016 33.5831 42.1109 34.6805C42.5959 37.2908 44.1723 39.5098 45.335 41.8571C45.644 42.4074 46.0592 42.8879 46.4546 43.3814C45.9845 43.6136 45.4596 43.8359 45.1922 44.3083L45.1889 44.3067ZM48.4512 46.1524C47.614 46.2498 46.7436 46.279 45.9363 46.0079C45.9398 45.5615 45.9148 45.0323 46.2818 44.6996C46.5725 44.4901 46.9861 44.297 47.3217 44.5259C48.7502 45.2612 50.4112 44.9025 51.9311 44.7223C51.0026 45.6054 49.7169 46.0177 48.4512 46.1524ZM44.0627 32.6026C43.7653 32.8413 44.086 33.1984 44.3417 33.3104C44.9613 33.6659 45.8101 33.1692 45.83 32.4777C45.2703 32.2228 44.5693 32.2488 44.0627 32.6026ZM33.0963 33.7065C33.3605 33.5604 33.6395 33.1594 33.3339 32.9176C32.8987 32.5718 32.2658 32.5052 31.7359 32.6448C31.5648 32.7033 31.3854 32.8169 31.4203 33.0215C31.5432 33.7162 32.4967 34.1383 33.0963 33.7065Z" fill="#FAFAFA"/>
<g clip-path="url(#clip0_10_5689)">
<path fill-rule="evenodd" clip-rule="evenodd" d="M164.638 43.3914C164.638 43.1268 164.638 42.8622 164.638 42.5976C165.419 42.5976 166.2 42.5976 166.981 42.5976C167.043 44.87 168.155 46.3715 170.317 47.1022C171.638 47.4954 172.988 47.674 174.368 47.638C175.549 47.6667 176.715 47.5411 177.862 47.261C179.728 46.8317 180.681 45.6609 180.722 43.7486C180.686 42.4505 180.077 41.5442 178.895 41.0299C178.193 40.795 177.478 40.6098 176.75 40.4743C174.913 40.1439 173.073 39.8264 171.23 39.5217C170.111 39.3245 169.012 39.0466 167.934 38.6883C166.146 37.9622 165.246 36.626 165.233 34.6798C165.198 32.6671 166.085 31.2383 167.894 30.3934C169.21 29.8898 170.573 29.612 171.985 29.56C173.92 29.4065 175.839 29.5123 177.743 29.8775C178.744 30.087 179.671 30.4706 180.523 31.0284C181.917 32.1015 182.579 33.5236 182.509 35.2949C181.702 35.2949 180.894 35.2949 180.086 35.2949C180.061 33.4504 179.187 32.2002 177.465 31.5444C176.233 31.1531 174.968 30.9612 173.673 30.9689C172.385 30.9607 171.121 31.126 169.88 31.465C168.215 32.0599 167.467 33.2439 167.636 35.0171C167.781 35.9084 168.25 36.5633 169.046 36.9817C169.221 37.0534 169.393 37.1327 169.562 37.2198C170.279 37.4485 171.007 37.6337 171.746 37.7755C173.329 38.0875 174.917 38.3653 176.512 38.6089C177.901 38.8301 179.251 39.1873 180.563 39.6805C181.76 40.1487 182.561 40.9888 182.966 42.2007C183.039 42.4613 183.092 42.7258 183.125 42.9945C183.382 45.7022 182.237 47.5212 179.689 48.4516C178.374 48.8837 177.024 49.1219 175.638 49.166C173.825 49.271 172.025 49.1651 170.237 48.8485C168.905 48.6057 167.687 48.103 166.584 47.3403C165.359 46.3146 164.71 44.9983 164.638 43.3914Z" fill="#FAFAFA"/>
<path fill-rule="evenodd" clip-rule="evenodd" d="M194.741 29.5004C196.696 29.4155 198.616 29.6337 200.499 30.1552C203.109 30.951 205.061 32.5452 206.357 34.9377C207.231 36.9481 207.496 39.0383 207.151 41.2084C206.774 43.5593 205.629 45.4247 203.716 46.8045C204.79 47.5596 205.875 48.3004 206.973 49.0271C207.017 49.0756 207.024 49.1285 206.993 49.1858C206.525 49.5886 206.068 50.0054 205.622 50.436C205.57 50.4625 205.516 50.4625 205.464 50.436C204.332 49.639 203.194 48.8519 202.048 48.0745C200.881 48.6406 199.65 48.9779 198.355 49.0866C196.253 49.323 194.161 49.2569 192.08 48.8881C189.281 48.3759 187.05 46.9802 185.388 44.701C184.206 42.7935 183.716 40.7165 183.919 38.47C184.215 34.8548 185.995 32.2684 189.26 30.7109C191.015 29.9646 192.842 29.5611 194.741 29.5004ZM194.939 31.0085C196.72 30.9167 198.441 31.1879 200.102 31.8222C203.316 33.2963 204.945 35.8099 204.987 39.3629C204.879 43.5449 202.814 46.1908 198.792 47.3006C196.369 47.8747 193.973 47.7821 191.603 47.0228C188.105 45.6626 186.305 43.1027 186.202 39.3431C186.326 35.0724 188.457 32.4067 192.596 31.3459C193.375 31.1752 194.156 31.0628 194.939 31.0085Z" fill="#FAFAFA"/>
<path fill-rule="evenodd" clip-rule="evenodd" d="M75.9962 40.7323C72.9648 40.7323 69.933 40.7323 66.9017 40.7323C66.9017 43.3914 66.9017 46.0505 66.9017 48.7096C66.1737 48.7096 65.4454 48.7096 64.7174 48.7096C64.7174 42.4785 64.7174 36.2475 64.7174 30.0164C67.9759 29.9863 71.246 29.9598 74.5267 29.937C75.5919 29.9006 76.651 29.9601 77.7039 30.1156C80.2019 30.6671 81.5986 32.2083 81.8937 34.7393C82.0724 37.6819 80.7551 39.5803 77.9421 40.4346C77.3047 40.6097 76.6562 40.7089 75.9962 40.7323ZM66.9414 31.4849C69.9735 31.467 73.0049 31.4869 76.0359 31.5444C76.9144 31.6164 77.7086 31.9075 78.4187 32.4175C79.0525 32.9859 79.4298 33.6937 79.5506 34.5409C79.6892 35.4221 79.6097 36.282 79.3123 37.1206C78.7916 38.1461 77.9644 38.7877 76.8302 39.0455C76.3965 39.1423 75.9596 39.2151 75.5196 39.2638C72.6602 39.2638 69.8008 39.2638 66.9414 39.2638C66.9414 36.6708 66.9414 34.0778 66.9414 31.4849Z" fill="#FAFAFA"/>
<path fill-rule="evenodd" clip-rule="evenodd" d="M209.554 29.9767C209.62 29.9767 209.686 29.9767 209.753 29.9767C210.176 29.9767 210.6 29.9767 211.023 29.9767C211.023 35.705 211.023 41.4334 211.023 47.1617C215.683 47.1617 220.343 47.1617 225.003 47.1617C225.003 47.5718 225.003 47.982 225.003 48.3921C225.003 48.4185 225.003 48.445 225.003 48.4715C224.965 48.5415 224.952 48.6209 224.963 48.7096C219.589 48.7096 214.214 48.7096 208.839 48.7096C208.839 42.4785 208.839 36.2474 208.839 30.0164C209.085 30.0292 209.323 30.016 209.554 29.9767Z" fill="#FAFAFA"/>
<path opacity="0.861" fill-rule="evenodd" clip-rule="evenodd" d="M120.436 37.7159C120.436 37.2926 120.436 36.8693 120.436 36.4459C119.324 36.4459 118.212 36.4459 117.1 36.4459C117.1 35.1097 117.1 33.7736 117.1 32.4374C116.478 32.4374 115.856 32.4374 115.234 32.4374C115.247 33.6613 115.234 34.8784 115.194 36.0887C115.194 34.8584 115.194 33.628 115.194 32.3977C115.842 32.3977 116.491 32.3977 117.14 32.3977C117.14 33.7339 117.14 35.07 117.14 36.4062C118.252 36.4062 119.364 36.4062 120.476 36.4062C120.489 36.8499 120.475 37.2865 120.436 37.7159Z" fill="#FAFAFA"/>
<path fill-rule="evenodd" clip-rule="evenodd" d="M120.436 37.7159C120.317 37.7159 120.198 37.7159 120.079 37.7159C119.093 37.6763 118.1 37.6631 117.1 37.6762C117.087 40.5008 117.1 43.3187 117.14 46.1299C117.129 46.7373 117.394 47.1672 117.934 47.4197C118.166 47.503 118.404 47.5559 118.649 47.5785C119.265 47.6985 119.868 47.6523 120.456 47.4396C120.476 47.8892 120.483 48.339 120.476 48.789C119.402 48.9537 118.33 48.9471 117.259 48.7691C116.797 48.6817 116.373 48.5097 115.988 48.2532C115.495 47.8166 115.243 47.2675 115.234 46.6061C115.234 43.6295 115.234 40.6529 115.234 37.6762C114.4 37.6762 113.566 37.6762 112.732 37.6762C112.679 37.2634 112.679 36.8467 112.732 36.4261C113.552 36.4062 114.373 36.3996 115.194 36.4062C115.194 36.3004 115.194 36.1946 115.194 36.0887C115.234 34.8784 115.247 33.6613 115.234 32.4374C115.856 32.4374 116.478 32.4374 117.1 32.4374C117.1 33.7736 117.1 35.1097 117.1 36.4459C118.212 36.4459 119.324 36.4459 120.436 36.4459C120.436 36.8693 120.436 37.2926 120.436 37.7159Z" fill="#FAFAFA"/>
<path fill-rule="evenodd" clip-rule="evenodd" d="M88.4266 36.0093C89.867 35.9469 91.2836 36.0991 92.676 36.4658C95.6272 37.4384 97.1232 39.4823 97.1637 42.5976C97.1692 45.4799 95.8456 47.4577 93.1923 48.531C91.4064 49.0998 89.5795 49.2851 87.7118 49.0867C86.0811 48.9673 84.6379 48.3984 83.383 47.3801C82.0462 46.0968 81.3845 44.5225 81.3973 42.6571C81.3615 39.9222 82.566 37.9643 85.0112 36.7833C86.1101 36.3296 87.2483 36.0717 88.4266 36.0093ZM88.6649 37.3588C89.9016 37.3027 91.1061 37.4681 92.2789 37.8549C94.039 38.5966 94.9854 39.9262 95.1184 41.8435C95.3793 45.5518 93.6518 47.5429 89.9358 47.8166C88.6943 47.9268 87.4894 47.768 86.3218 47.3404C84.7527 46.6203 83.8063 45.4098 83.4822 43.7089C83.2197 42.2218 83.4711 40.8328 84.2368 39.5416C85.0295 38.4799 86.0819 37.8118 87.3941 37.5374C87.8214 37.4614 88.2447 37.4019 88.6649 37.3588Z" fill="#FAFAFA"/>
<path fill-rule="evenodd" clip-rule="evenodd" d="M111.62 39.7003C111.62 39.8326 111.62 39.9649 111.62 40.0972C110.971 40.0972 110.322 40.0972 109.674 40.0972C109.684 40.0337 109.671 39.9808 109.634 39.9384C109.571 39.1156 109.2 38.474 108.522 38.0135C107.655 37.5523 106.729 37.3142 105.742 37.2991C104.646 37.2381 103.56 37.3175 102.485 37.5373C101.886 37.668 101.363 37.9392 100.917 38.3509C100.378 39.0342 100.325 39.7486 100.758 40.4941C101.13 40.8688 101.574 41.1268 102.088 41.268C102.692 41.4033 103.301 41.5091 103.915 41.5855C105.092 41.7323 106.27 41.8646 107.45 41.9824C108.373 42.0788 109.273 42.2772 110.15 42.5777C111.867 43.251 112.522 44.488 112.116 46.2886C111.882 47.0775 111.412 47.6794 110.706 48.0944C109.853 48.5624 108.94 48.8535 107.966 48.9675C106.286 49.184 104.605 49.1972 102.922 49.0072C101.89 48.9279 100.91 48.6634 99.9834 48.2134C98.7598 47.456 98.1113 46.3513 98.0374 44.8995C98.7523 44.8863 99.4671 44.873 100.182 44.8598C100.148 45.7111 100.453 46.4057 101.095 46.9434C101.794 47.4027 102.562 47.6805 103.399 47.7769C104.804 47.9714 106.207 47.9582 107.608 47.7372C108.347 47.6326 109.009 47.3548 109.594 46.9037C110.135 46.3294 110.288 45.6613 110.051 44.8995C109.782 44.2908 109.325 43.8873 108.681 43.689C106.312 43.3422 103.942 42.9982 101.572 42.6571C99.06 42.2652 98.1137 40.843 98.7324 38.3906C99.0688 37.631 99.6184 37.082 100.381 36.7435C101.51 36.3405 102.675 36.1156 103.875 36.0688C105.457 35.9491 107.019 36.0682 108.562 36.426C109.518 36.6619 110.319 37.1448 110.964 37.8746C111.359 38.418 111.578 39.0266 111.62 39.7003Z" fill="#FAFAFA"/>
<path fill-rule="evenodd" clip-rule="evenodd" d="M135.17 48.908C135.216 48.0019 135.223 47.089 135.19 46.1695C135.161 46.1911 135.141 46.2175 135.13 46.2488C134.485 47.0452 133.677 47.6206 132.708 47.9753C130.446 48.6666 128.17 48.7195 125.877 48.134C123.019 47.2406 121.602 45.2893 121.627 42.28C121.618 39.2942 123.034 37.3561 125.877 36.4657C127.536 36.0369 129.218 35.9311 130.921 36.1482C131.784 36.2638 132.605 36.5152 133.383 36.9022C134.023 37.3828 134.612 37.9186 135.15 38.5096C135.17 37.8218 135.177 37.1339 135.17 36.4458C135.818 36.4458 136.467 36.4458 137.116 36.4458C137.123 40.666 137.116 44.8862 137.096 49.1064C136.903 51.0445 135.917 52.4005 134.137 53.1745C133.052 53.5944 131.927 53.8326 130.762 53.8889C129.161 53.9854 127.573 53.8928 125.996 53.611C123.873 53.2359 122.629 51.9923 122.263 49.8803C122.932 49.8214 123.607 49.8015 124.288 49.8208C124.419 50.5907 124.763 51.2456 125.321 51.7854C126.122 52.277 126.996 52.5548 127.942 52.6188C129.15 52.7182 130.355 52.6918 131.556 52.5394C133.656 52.2069 134.861 50.9964 135.17 48.908ZM128.657 37.3983C129.965 37.2964 131.236 37.4618 132.469 37.8944C134.273 38.7586 135.173 40.2006 135.17 42.2205C135.161 44.7824 133.917 46.3832 131.437 47.0228C129.934 47.3111 128.438 47.2714 126.949 46.9037C125.219 46.4318 124.154 45.3272 123.752 43.5897C123.48 42.2637 123.639 40.9937 124.229 39.7796C124.896 38.7343 125.83 38.0398 127.029 37.696C127.571 37.5617 128.114 37.4625 128.657 37.3983Z" fill="#FAFAFA"/>
<path fill-rule="evenodd" clip-rule="evenodd" d="M141.167 42.161C141.127 44.3372 141.114 46.52 141.127 48.7096C140.505 48.7096 139.883 48.7096 139.26 48.7096C139.26 44.6349 139.26 40.5602 139.26 36.4856C139.883 36.4856 140.505 36.4856 141.127 36.4856C141.127 37.2132 141.127 37.9408 141.127 38.6684C141.272 38.6818 141.338 38.6157 141.326 38.47C141.839 37.1445 142.805 36.3838 144.225 36.1879C144.541 36.1371 144.859 36.0974 145.178 36.0688C145.946 36.049 146.713 36.0424 147.481 36.049C147.494 36.6053 147.481 37.1609 147.442 37.7159C146.177 37.4595 144.933 37.5323 143.708 37.9342C142.396 38.5126 141.608 39.5114 141.345 40.9307C141.265 41.3388 141.206 41.7489 141.167 42.161Z" fill="#FAFAFA"/>
<path fill-rule="evenodd" clip-rule="evenodd" d="M162.89 42.4388C162.89 42.5975 162.89 42.7563 162.89 42.9151C158.336 42.9151 153.783 42.9151 149.229 42.9151C149.218 42.9911 149.231 43.0572 149.268 43.1135C149.447 45.3225 150.585 46.7843 152.684 47.4991C154.18 47.9158 155.689 47.9687 157.211 47.6578C158.852 47.2807 159.964 46.3083 160.547 44.7407C161.243 44.7276 161.931 44.7408 162.612 44.7804C162.18 46.2711 161.28 47.389 159.912 48.1341C158.149 48.9547 156.296 49.2854 154.352 49.1263C152.915 49.0622 151.565 48.6918 150.301 48.015C148.263 46.741 147.244 44.8955 147.243 42.4785C147.287 39.7173 148.571 37.7924 151.095 36.7038C152.742 36.1328 154.437 35.9212 156.179 36.0688C157.537 36.1303 158.808 36.4874 159.991 37.1404C161.88 38.3898 162.846 40.1559 162.89 42.4388ZM154.312 37.2793C155.53 37.1735 156.709 37.3388 157.847 37.7754C158.965 38.2709 159.832 39.0448 160.448 40.0972C160.729 40.631 160.868 41.1999 160.865 41.8038C156.999 41.817 153.134 41.8038 149.268 41.7641C149.48 40.5062 150.036 39.4346 150.936 38.5493C151.945 37.8122 153.07 37.3889 154.312 37.2793Z" fill="#FAFAFA"/>
<path opacity="0.862" fill-rule="evenodd" clip-rule="evenodd" d="M120.079 37.7159C119.099 37.7159 118.12 37.7159 117.14 37.7159C117.14 40.5205 117.14 43.3251 117.14 46.1298C117.1 43.3186 117.087 40.5008 117.1 37.6762C118.1 37.663 119.093 37.6763 120.079 37.7159Z" fill="#FAFAFA"/>
<path opacity="0.4" fill-rule="evenodd" clip-rule="evenodd" d="M112.732 37.6763C113.566 37.6763 114.4 37.6763 115.234 37.6763C115.234 40.6529 115.234 43.6295 115.234 46.6061C115.194 43.6494 115.181 40.686 115.194 37.716C114.366 37.7291 113.545 37.7158 112.732 37.6763Z" fill="#FAFAFA"/>
<path opacity="0.557" fill-rule="evenodd" clip-rule="evenodd" d="M141.326 38.47C141.338 38.6158 141.272 38.6819 141.127 38.6685C141.127 37.9409 141.127 37.2132 141.127 36.4856C140.505 36.4856 139.883 36.4856 139.26 36.4856C139.26 40.5603 139.26 44.6349 139.26 48.7096C139.883 48.7096 140.505 48.7096 141.127 48.7096C141.114 46.5201 141.127 44.3372 141.167 42.161C141.167 44.3571 141.167 46.5532 141.167 48.7493C140.518 48.7493 139.869 48.7493 139.221 48.7493C139.221 44.6482 139.221 40.547 139.221 36.4459C139.869 36.4459 140.518 36.4459 141.167 36.4459C141.154 37.174 141.167 37.9017 141.206 38.6288C141.247 38.5732 141.287 38.5202 141.326 38.47Z" fill="#FAFAFA"/>
<path opacity="0.114" fill-rule="evenodd" clip-rule="evenodd" d="M66.9414 31.4849C66.9414 34.0778 66.9414 36.6708 66.9414 39.2638C69.8008 39.2638 72.6602 39.2638 75.5196 39.2638C72.6539 39.3034 69.781 39.3167 66.9017 39.3035C66.8886 36.6906 66.9017 34.0844 66.9414 31.4849Z" fill="#FAFAFA"/>
<path opacity="0.857" fill-rule="evenodd" clip-rule="evenodd" d="M111.62 39.7003C111.659 39.8377 111.672 39.9833 111.659 40.1369C110.984 40.1369 110.309 40.1369 109.634 40.1369C109.634 40.0707 109.634 40.0046 109.634 39.9384C109.671 39.9808 109.684 40.0337 109.674 40.0972C110.322 40.0972 110.971 40.0972 111.62 40.0972C111.62 39.9649 111.62 39.8326 111.62 39.7003Z" fill="#FAFAFA"/>
<path opacity="0.86" fill-rule="evenodd" clip-rule="evenodd" d="M166.981 42.5976C166.2 42.5976 165.419 42.5976 164.638 42.5976C164.638 42.8622 164.638 43.1267 164.638 43.3913C164.598 43.1209 164.585 42.8431 164.598 42.5579C165.399 42.5448 166.193 42.558 166.981 42.5976Z" fill="#FAFAFA"/>
<path opacity="0.114" fill-rule="evenodd" clip-rule="evenodd" d="M162.89 42.4388C162.929 42.6029 162.943 42.7749 162.93 42.9548C158.376 42.9548 153.822 42.9548 149.268 42.9548C149.268 43.0077 149.268 43.0606 149.268 43.1135C149.231 43.0572 149.218 42.9911 149.229 42.9151C153.783 42.9151 158.336 42.9151 162.89 42.9151C162.89 42.7563 162.89 42.5976 162.89 42.4388Z" fill="#FAFAFA"/>
<path opacity="0.251" fill-rule="evenodd" clip-rule="evenodd" d="M160.547 44.7408C161.242 44.6881 161.944 44.6881 162.652 44.7408C162.647 44.7649 162.634 44.7781 162.612 44.7805C161.931 44.7409 161.243 44.7277 160.547 44.7408Z" fill="#FAFAFA"/>
<path opacity="0.557" fill-rule="evenodd" clip-rule="evenodd" d="M64.7174 30.0164C64.7174 36.2474 64.7174 42.4785 64.7174 48.7096C65.4454 48.7096 66.1737 48.7096 66.9017 48.7096C66.9017 46.0504 66.9017 43.3913 66.9017 40.7322C69.933 40.7322 72.9648 40.7322 75.9962 40.7322C72.9847 40.7719 69.9664 40.7851 66.9414 40.7719C66.9414 43.431 66.9414 46.0901 66.9414 48.7493C66.1868 48.7493 65.4323 48.7493 64.6777 48.7493C64.6646 42.4983 64.6777 36.254 64.7174 30.0164Z" fill="#FAFAFA"/>
<path opacity="0.556" fill-rule="evenodd" clip-rule="evenodd" d="M209.753 29.9767C210.182 29.9372 210.619 29.924 211.063 29.937C211.063 35.6653 211.063 41.3937 211.063 47.122C215.723 47.122 220.383 47.122 225.043 47.122C225.056 47.5525 225.042 47.9758 225.003 48.3921C225.003 47.982 225.003 47.5718 225.003 47.1617C220.343 47.1617 215.683 47.1617 211.024 47.1617C211.024 41.4334 211.024 35.705 211.024 29.9767C210.6 29.9767 210.176 29.9767 209.753 29.9767Z" fill="#FAFAFA"/>
<path opacity="0.251" fill-rule="evenodd" clip-rule="evenodd" d="M135.17 48.9081C135.183 48.0148 135.17 47.1284 135.13 46.2489C135.141 46.2176 135.161 46.1911 135.19 46.1696C135.223 47.0891 135.216 48.002 135.17 48.9081Z" fill="#FAFAFA"/>
<path opacity="0.714" fill-rule="evenodd" clip-rule="evenodd" d="M209.554 29.9767C209.323 30.016 209.085 30.0292 208.839 30.0164C208.839 36.2474 208.839 42.4785 208.839 48.7096C214.214 48.7096 219.589 48.7096 224.963 48.7096C224.952 48.6209 224.965 48.5415 225.003 48.4715C225.003 48.564 225.003 48.6567 225.003 48.7493C219.602 48.7493 214.201 48.7493 208.8 48.7493C208.8 42.4917 208.8 36.2342 208.8 29.9767C209.051 29.9767 209.303 29.9767 209.554 29.9767Z" fill="#FAFAFA"/>
</g>
<defs>
<clipPath id="clip0_10_5689">
<rect width="163.463" height="25.7577" fill="white" transform="translate(62.8707 28.6074)"/>
</clipPath>
</defs>
</svg>
