<svg width="240" height="80" viewBox="0 0 240 80" fill="none" xmlns="http://www.w3.org/2000/svg">
<g clip-path="url(#clip0_10_5650)">
<path d="M63.814 37.5973L55.0575 22.4029C54.2994 21.0836 52.4349 20.0001 50.9101 20.0001H33.4144C31.8984 20.0001 30.0251 21.0836 29.2671 22.4029L20.5192 37.5973C19.7612 38.9167 19.7612 41.0748 20.5192 42.3942L29.2671 57.5973C30.0251 58.9167 31.8897 60.0001 33.4144 60.0001H50.9188C52.4349 60.0001 54.2994 58.9167 55.0662 57.5973L63.814 42.3942C64.572 41.0748 64.572 38.9167 63.814 37.5973ZM40.2716 28.4055C40.2716 27.4095 41.0819 26.5969 42.0751 26.5969C43.0684 26.5969 43.8787 27.4095 43.8787 28.4055V39.2138C43.8787 40.2098 43.0684 41.0224 42.0751 41.0224C41.0819 41.0224 40.2716 40.2098 40.2716 39.2138V28.4055ZM42.0751 51.4811C35.3313 51.4811 29.8421 45.9765 29.8421 39.2138C29.8508 35.3343 31.6806 31.6908 34.7824 29.3667C35.4968 28.8337 36.4988 28.9822 37.0303 29.6987C37.5618 30.4152 37.4137 31.42 36.6992 31.9529C32.7 34.9324 31.8635 40.603 34.8347 44.6135C37.8058 48.624 43.4605 49.4628 47.4598 46.4833C49.7513 44.7795 51.1018 42.0796 51.1018 39.2138C51.0931 36.3391 49.7338 33.6393 47.4249 31.9267C46.7104 31.4025 46.5623 30.3889 47.0851 29.6725C47.6079 28.956 48.6186 28.8075 49.333 29.3317C52.461 31.6471 54.2994 35.3169 54.3082 39.2138C54.3082 45.9853 48.819 51.4811 42.0751 51.4811Z" fill="#FAFAFA"/>
</g>
<path d="M80.199 49.3202C78.8123 49.3202 77.6603 49.1549 76.743 48.8242C75.8363 48.4936 75.1963 48.2002 74.823 47.9442L75.175 45.1602C75.5163 45.4589 76.119 45.8002 76.983 46.1842C77.847 46.5682 78.8763 46.7602 80.071 46.7602C81.0843 46.7602 81.8577 46.5896 82.391 46.2482C82.935 45.9069 83.207 45.4269 83.207 44.8082C83.207 44.2642 83.031 43.8269 82.679 43.4962C82.3377 43.1549 81.9217 42.8882 81.431 42.6962C80.951 42.4936 80.4977 42.3336 80.071 42.2162C79.3563 42.0242 78.615 41.7842 77.847 41.4962C77.0897 41.1976 76.4497 40.7549 75.927 40.1682C75.4043 39.5816 75.143 38.7602 75.143 37.7042C75.143 36.9042 75.335 36.1469 75.719 35.4322C76.103 34.7069 76.727 34.1202 77.591 33.6722C78.455 33.2242 79.6017 33.0002 81.031 33.0002C82.0763 33.0002 82.9243 33.1122 83.575 33.3362C84.2363 33.5496 84.807 33.7789 85.287 34.0242L84.935 36.6482C84.4763 36.2642 83.943 35.9389 83.335 35.6722C82.727 35.4056 81.9803 35.2722 81.095 35.2722C80.199 35.2722 79.4683 35.4429 78.903 35.7842C78.3377 36.1149 78.055 36.6482 78.055 37.3842C78.055 38.1202 78.3537 38.6429 78.951 38.9522C79.559 39.2616 80.4763 39.6029 81.703 39.9762C82.087 40.0829 82.5297 40.2376 83.031 40.4402C83.543 40.6429 84.039 40.9149 84.519 41.2562C84.999 41.5976 85.3937 42.0456 85.703 42.6002C86.023 43.1442 86.183 43.8269 86.183 44.6482C86.183 45.3416 86.0177 46.0509 85.687 46.7762C85.3563 47.4909 84.759 48.0936 83.895 48.5842C83.031 49.0749 81.799 49.3202 80.199 49.3202ZM88.361 56.7442V33.3202H90.601L91.113 36.9042L90.313 36.3282C90.9743 35.3042 91.7903 34.4936 92.761 33.8962C93.7317 33.2989 94.921 33.0002 96.329 33.0002C97.7583 33.0002 98.985 33.3629 100.009 34.0882C101.033 34.8136 101.817 35.7949 102.361 37.0322C102.905 38.2589 103.177 39.6349 103.177 41.1602C103.177 42.6856 102.921 44.0669 102.409 45.3042C101.897 46.5309 101.134 47.5069 100.121 48.2322C99.1077 48.9576 97.8437 49.3202 96.329 49.3202C95.081 49.3202 93.9503 49.0642 92.937 48.5522C91.9343 48.0296 91.209 47.2509 90.761 46.2162L91.241 45.6402V56.7442H88.361ZM95.785 46.7602C97.1823 46.7602 98.2703 46.2696 99.049 45.2882C99.8383 44.2962 100.233 42.9202 100.233 41.1602C100.233 39.4002 99.8383 38.0296 99.049 37.0482C98.2703 36.0562 97.1823 35.5602 95.785 35.5602C94.921 35.5602 94.1317 35.7682 93.417 36.1842C92.713 36.5896 92.1477 37.2082 91.721 38.0402C91.2943 38.8616 91.081 39.9016 91.081 41.1602C91.081 42.4722 91.2943 43.5389 91.721 44.3602C92.1477 45.1816 92.713 45.7896 93.417 46.1842C94.1317 46.5682 94.921 46.7602 95.785 46.7602ZM105.533 49.0002V33.3202H107.901L108.253 35.9122C109.053 34.9202 109.816 34.1896 110.541 33.7202C111.277 33.2402 112.061 33.0002 112.893 33.0002C113.16 33.0002 113.405 33.0322 113.629 33.0962L113.341 36.2642C113.203 36.2322 113.053 36.2109 112.893 36.2002C112.744 36.1789 112.573 36.1682 112.381 36.1682C111.549 36.1682 110.781 36.3549 110.077 36.7282C109.384 37.0909 108.893 37.4909 108.605 37.9282V49.0002H105.533ZM115.018 49.0002V33.3202H117.898V49.0002H115.018ZM115.018 29.8002V26.6002H117.898V29.8002H115.018ZM121.16 49.0002V33.3202H123.4L123.976 36.3282L122.856 35.8482C123.912 34.6749 124.941 33.9069 125.944 33.5442C126.957 33.1816 127.944 33.0002 128.904 33.0002C131.197 33.0002 132.834 33.6616 133.816 34.9842C134.808 36.3069 135.304 38.0989 135.304 40.3602V49.0002H132.424V40.3602C132.424 38.6962 132.114 37.4802 131.496 36.7122C130.877 35.9442 129.821 35.5602 128.328 35.5602C127.272 35.5602 126.301 35.7949 125.416 36.2642C124.541 36.7229 123.965 37.4589 123.688 38.4722L124.04 36.7122V49.0002H121.16ZM144.731 57.0002C143.301 57.0002 142.021 56.8242 140.891 56.4722C139.771 56.1202 138.885 55.5976 138.235 54.9042C137.595 54.2109 137.275 53.3522 137.275 52.3282C137.275 51.4749 137.515 50.7389 137.995 50.1202C138.485 49.5122 139.152 49.0216 139.995 48.6482C139.493 48.4029 139.109 48.1149 138.843 47.7842C138.587 47.4429 138.459 47.0696 138.459 46.6642C138.459 46.1842 138.603 45.7522 138.891 45.3682C139.189 44.9736 139.664 44.6482 140.315 44.3922C139.44 43.8482 138.768 43.1176 138.299 42.2002C137.829 41.2722 137.595 40.2429 137.595 39.1122C137.595 37.9709 137.851 36.9416 138.363 36.0242C138.875 35.0962 139.611 34.3602 140.571 33.8162C141.541 33.2722 142.704 33.0002 144.059 33.0002C144.784 33.0002 145.467 33.1069 146.107 33.3202C146.757 33.5336 147.355 33.8322 147.899 34.2162C148.379 33.9389 148.944 33.7096 149.595 33.5282C150.256 33.3469 150.992 33.2562 151.803 33.2562C151.856 33.2562 151.899 33.2562 151.931 33.2562C151.973 33.2562 152.016 33.2562 152.059 33.2562L151.707 35.1762C151.579 35.1762 151.456 35.1762 151.339 35.1762C151.221 35.1762 151.099 35.1762 150.971 35.1762C150.864 35.1762 150.619 35.1922 150.235 35.2242C149.851 35.2562 149.499 35.3149 149.179 35.4002C149.616 35.9122 149.952 36.4882 150.187 37.1282C150.432 37.7576 150.555 38.4189 150.555 39.1122C150.555 40.3069 150.293 41.3789 149.771 42.3282C149.259 43.2669 148.517 44.0136 147.547 44.5682C146.576 45.1122 145.413 45.3842 144.059 45.3842C143.675 45.3842 143.307 45.3629 142.955 45.3202C142.603 45.2669 142.267 45.1922 141.947 45.0962C141.456 45.2562 141.211 45.5336 141.211 45.9282C141.211 46.1629 141.349 46.3709 141.627 46.5522C141.904 46.7229 142.352 46.8562 142.971 46.9522L147.163 47.6242C148.859 47.8909 150.165 48.3816 151.083 49.0962C152.011 49.8109 152.475 50.8242 152.475 52.1362C152.475 53.2242 152.155 54.1256 151.515 54.8402C150.885 55.5656 149.989 56.1042 148.827 56.4562C147.664 56.8189 146.299 57.0002 144.731 57.0002ZM144.987 54.4402C146.459 54.4402 147.589 54.2482 148.379 53.8642C149.168 53.4909 149.563 52.9362 149.563 52.2002C149.563 51.6242 149.312 51.1709 148.811 50.8402C148.32 50.5096 147.611 50.2589 146.683 50.0882L142.219 49.3362C141.632 49.5922 141.12 49.9336 140.683 50.3602C140.245 50.7976 140.027 51.3042 140.027 51.8802C140.027 52.7762 140.475 53.4269 141.371 53.8322C142.277 54.2376 143.483 54.4402 144.987 54.4402ZM144.059 43.0802C145.275 43.0802 146.203 42.7176 146.843 41.9922C147.483 41.2562 147.803 40.3069 147.803 39.1442C147.803 38.0242 147.483 37.1069 146.843 36.3922C146.203 35.6669 145.275 35.3042 144.059 35.3042C142.843 35.3042 141.92 35.6669 141.291 36.3922C140.661 37.1069 140.347 38.0242 140.347 39.1442C140.347 40.3069 140.661 41.2562 141.291 41.9922C141.92 42.7176 142.843 43.0802 144.059 43.0802ZM167.952 49.3202C166.853 49.3202 165.786 49.0589 164.752 48.5362C163.728 48.0029 163.013 47.2189 162.608 46.1842L163.312 45.6722L162.768 49.0002H160.208V25.0002H163.088V36.3922L162.48 35.9442C163.013 35.0802 163.776 34.3762 164.768 33.8322C165.76 33.2776 166.821 33.0002 167.952 33.0002C169.413 33.0002 170.672 33.3842 171.728 34.1522C172.784 34.9096 173.594 35.9122 174.16 37.1602C174.736 38.3976 175.024 39.7309 175.024 41.1602C175.024 42.6856 174.709 44.0669 174.08 45.3042C173.45 46.5309 172.602 47.5069 171.536 48.2322C170.469 48.9576 169.274 49.3202 167.952 49.3202ZM167.6 46.7602C168.517 46.7602 169.312 46.5096 169.984 46.0082C170.656 45.4962 171.173 44.8189 171.536 43.9762C171.898 43.1229 172.08 42.1842 172.08 41.1602C172.08 40.0936 171.898 39.1389 171.536 38.2962C171.173 37.4536 170.656 36.7869 169.984 36.2962C169.312 35.8056 168.517 35.5602 167.6 35.5602C166.778 35.5602 166.01 35.7682 165.296 36.1842C164.592 36.5896 164.021 37.2082 163.584 38.0402C163.146 38.8616 162.928 39.9016 162.928 41.1602C162.928 42.4722 163.146 43.5389 163.584 44.3602C164.021 45.1816 164.592 45.7896 165.296 46.1842C166.01 46.5682 166.778 46.7602 167.6 46.7602ZM184.198 49.3202C182.555 49.3202 181.152 48.9576 179.99 48.2322C178.838 47.4962 177.952 46.5149 177.334 45.2882C176.726 44.0509 176.422 42.6749 176.422 41.1602C176.422 39.6456 176.726 38.2749 177.334 37.0482C177.952 35.8109 178.838 34.8296 179.99 34.1042C181.152 33.3682 182.555 33.0002 184.198 33.0002C185.83 33.0002 187.227 33.3682 188.39 34.1042C189.552 34.8296 190.438 35.8109 191.046 37.0482C191.664 38.2749 191.974 39.6456 191.974 41.1602C191.974 42.6749 191.664 44.0509 191.046 45.2882C190.438 46.5149 189.552 47.4962 188.39 48.2322C187.227 48.9576 185.83 49.3202 184.198 49.3202ZM184.198 46.7602C185.755 46.7602 186.95 46.2696 187.782 45.2882C188.614 44.2962 189.03 42.9202 189.03 41.1602C189.03 39.4002 188.614 38.0296 187.782 37.0482C186.95 36.0562 185.755 35.5602 184.198 35.5602C182.651 35.5602 181.456 36.0562 180.614 37.0482C179.782 38.0296 179.366 39.4002 179.366 41.1602C179.366 42.9202 179.782 44.2962 180.614 45.2882C181.456 46.2696 182.651 46.7602 184.198 46.7602ZM201.151 49.3202C199.509 49.3202 198.106 48.9576 196.943 48.2322C195.791 47.4962 194.906 46.5149 194.287 45.2882C193.679 44.0509 193.375 42.6749 193.375 41.1602C193.375 39.6456 193.679 38.2749 194.287 37.0482C194.906 35.8109 195.791 34.8296 196.943 34.1042C198.106 33.3682 199.509 33.0002 201.151 33.0002C202.783 33.0002 204.181 33.3682 205.343 34.1042C206.506 34.8296 207.391 35.8109 207.999 37.0482C208.618 38.2749 208.927 39.6456 208.927 41.1602C208.927 42.6749 208.618 44.0509 207.999 45.2882C207.391 46.5149 206.506 47.4962 205.343 48.2322C204.181 48.9576 202.783 49.3202 201.151 49.3202ZM201.151 46.7602C202.709 46.7602 203.903 46.2696 204.735 45.2882C205.567 44.2962 205.983 42.9202 205.983 41.1602C205.983 39.4002 205.567 38.0296 204.735 37.0482C203.903 36.0562 202.709 35.5602 201.151 35.5602C199.605 35.5602 198.41 36.0562 197.567 37.0482C196.735 38.0296 196.319 39.4002 196.319 41.1602C196.319 42.9202 196.735 44.2962 197.567 45.2882C198.41 46.2696 199.605 46.7602 201.151 46.7602ZM216.447 49.3202C215.455 49.3202 214.66 49.1389 214.063 48.7762C213.465 48.4136 213.028 47.9496 212.751 47.3842C212.484 46.8082 212.351 46.2056 212.351 45.5762V35.5602H209.663L209.919 33.3202H212.351V29.4482L215.231 29.1602V33.3202H219.359V35.5602H215.231V43.8162C215.231 44.8189 215.289 45.5442 215.407 45.9922C215.524 46.4402 215.812 46.7229 216.271 46.8402C216.74 46.9576 217.492 47.0162 218.527 47.0162H219.263L219.039 49.3202H216.447Z" fill="#FAFAFA"/>
<defs>
<clipPath id="clip0_10_5650">
<rect width="45" height="40" fill="white" transform="translate(19.6666 20.0001)"/>
</clipPath>
</defs>
</svg>
