<svg width="240" height="80" viewBox="0 0 240 80" fill="none" xmlns="http://www.w3.org/2000/svg">
<path fill-rule="evenodd" clip-rule="evenodd" d="M71.4352 20.1086H80.5L57.5596 58.1086L34.5 20.1086H43.8034L57.5994 42.9698L71.4352 20.1086Z" fill="#FAFAFA"/>
<path fill-rule="evenodd" clip-rule="evenodd" d="M63.094 20.1086H71.5L57.9419 42.1086L44.5 20.1086H52.7898L57.9419 28.5786L63.094 20.1086Z" fill="#FAFAFA" stroke="#202020" stroke-width="2" stroke-miterlimit="10"/>
<path fill-rule="evenodd" clip-rule="evenodd" d="M93.5 20.8867C93.5 20.3889 93.7876 19.9621 94.3628 19.6065C94.9379 19.2509 95.585 19.1086 96.232 19.1086C97.0948 19.1086 97.6699 19.4643 97.8856 20.1044L107.232 51.1143L116.578 20.1044C116.794 19.4643 117.369 19.1086 118.16 19.1086C118.807 19.1086 119.454 19.322 120.029 19.6776C120.605 20.0333 120.892 20.46 120.892 20.9579C120.892 20.9579 120.892 21.029 120.892 21.1001C120.892 21.1712 120.892 21.2424 120.892 21.3135L110.108 56.0219C109.748 57.0176 108.742 57.5155 107.304 57.5155C105.794 57.5155 104.931 57.0176 104.572 56.0219L93.6438 21.3135C93.5 21.1001 93.5 20.9579 93.5 20.8867ZM121.324 47.6293V34.0446C121.324 33.6179 121.539 33.2623 121.971 32.9778C122.402 32.6933 122.905 32.4799 123.552 32.4799C124.127 32.4799 124.631 32.6222 125.062 32.9778C125.493 33.3334 125.709 33.689 125.709 34.0446V47.6293C125.709 49.194 126.284 50.6165 127.507 51.8256C128.729 53.0347 130.167 53.6748 131.82 53.6748C133.474 53.6748 134.84 53.0347 136.062 51.8256C137.284 50.6165 137.859 49.194 137.859 47.5581V33.9735C137.859 33.6179 138.075 33.2623 138.507 32.9067C138.938 32.6222 139.441 32.4088 140.088 32.4088C140.735 32.4088 141.239 32.551 141.67 32.8355C142.101 33.12 142.317 33.4756 142.317 33.9024V47.487C142.317 50.1897 141.31 52.5368 139.225 54.5283C137.141 56.5197 134.696 57.5155 131.82 57.5155C128.944 57.5155 126.5 56.5197 124.415 54.5283C122.33 52.6079 121.324 50.2608 121.324 47.6293ZM145.912 47.487V42.0105C145.912 39.3078 146.918 37.0318 149.003 35.0404C151.088 33.12 153.605 32.1243 156.48 32.1243C159.212 32.1243 161.657 33.0489 163.67 34.827C165.683 36.6762 166.69 38.9522 166.69 41.6549C166.69 42.6506 166.546 43.5041 166.33 44.0731C166.114 44.7132 165.683 45.1399 165.18 45.3533C164.676 45.6378 164.173 45.7801 163.742 45.8512C163.31 45.9223 162.735 45.9223 161.944 45.9223H150.297V47.487C150.297 49.4074 151.016 50.901 152.382 52.1101C153.748 53.248 155.618 53.817 157.846 53.817C158.997 53.817 160.003 53.6748 160.938 53.3192C161.801 52.9636 162.52 52.6079 163.023 52.3234C163.526 51.9678 163.958 51.8256 164.317 51.8256C164.82 51.8256 165.252 52.0389 165.611 52.4657C165.971 52.8924 166.114 53.3192 166.114 53.817C166.114 54.5994 165.324 55.4529 163.67 56.2352C162.088 57.0887 160.075 57.5155 157.703 57.5155C154.252 57.5155 151.376 56.5909 149.219 54.7416C146.99 52.9636 145.912 50.5453 145.912 47.487ZM150.369 43.1485H160.219C161.154 43.1485 161.729 43.0062 162.088 42.7929C162.376 42.5795 162.592 42.1527 162.592 41.4415C162.592 39.8768 162.016 38.5254 160.866 37.3163C159.716 36.1072 158.278 35.5382 156.552 35.5382C154.899 35.5382 153.461 36.1072 152.239 37.1741C151.016 38.2409 150.441 39.5923 150.441 41.2281L150.369 43.1485ZM168.99 54.8128C168.99 54.0304 169.278 53.3903 169.781 52.8924C170.284 52.3234 171.003 52.1101 171.722 52.1101C172.441 52.1101 173.088 52.3946 173.663 52.8924C174.167 53.4614 174.454 54.1015 174.454 54.8128C174.454 55.524 174.167 56.1641 173.663 56.7331C173.16 57.3021 172.513 57.5155 171.722 57.5155C170.931 57.5155 170.284 57.231 169.781 56.7331C169.206 56.1641 168.99 55.524 168.99 54.8128ZM172.873 67.2594C172.873 66.6904 173.016 66.2637 173.376 65.9081C173.735 65.5525 174.167 65.3391 174.67 65.3391C176.036 65.3391 176.971 64.8412 177.402 63.8455C177.833 62.8498 178.049 61.3562 178.049 59.2936V33.9735C178.049 33.5468 178.265 33.1911 178.696 32.9067C179.127 32.6222 179.631 32.4799 180.278 32.4799C180.925 32.4799 181.428 32.6222 181.859 32.9067C182.291 33.1911 182.507 33.5468 182.507 33.9735V59.2936C182.507 62.3519 181.931 64.699 180.709 66.4771C179.487 68.2552 177.69 69.1086 175.245 69.1086C173.663 69.1086 172.873 68.5396 172.873 67.2594ZM177.474 23.1627C177.474 22.5226 177.761 21.9536 178.265 21.4557C178.768 20.9579 179.487 20.7445 180.206 20.7445C180.925 20.7445 181.572 20.9579 182.147 21.4557C182.65 21.9536 182.938 22.5226 182.938 23.1627C182.938 23.8028 182.65 24.3718 182.147 24.9408C181.644 25.4387 180.997 25.7232 180.206 25.7232C179.415 25.7232 178.84 25.4387 178.265 24.9408C177.761 24.4429 177.474 23.8739 177.474 23.1627ZM185.742 53.6748C185.742 53.248 185.886 52.7502 186.173 52.3234C186.461 51.8967 186.82 51.6833 187.252 51.6833C187.539 51.6833 187.971 51.8967 188.474 52.3234C188.977 52.7502 189.768 53.1769 190.775 53.5325C191.781 53.9593 192.931 54.1015 194.297 54.1015C196.095 54.1015 197.389 53.817 198.18 53.1769C198.971 52.5368 199.402 51.7544 199.402 50.8298C199.402 49.6919 198.971 48.7673 198.036 48.1271C197.173 47.4159 196.095 46.918 194.801 46.5624C193.507 46.2068 192.212 45.8512 190.99 45.4244C189.696 44.9977 188.618 44.2865 187.755 43.3618C186.892 42.3661 186.389 41.0859 186.389 39.5212C186.389 37.5297 187.108 35.8227 188.546 34.4002C189.984 32.9778 192.141 32.2665 195.088 32.2665C196.958 32.2665 198.683 32.551 200.265 33.12C201.846 33.689 202.637 34.3291 202.637 35.0404C202.637 35.4671 202.493 35.8939 202.134 36.4628C201.775 36.9607 201.415 37.2452 200.912 37.2452C200.768 37.2452 200.121 36.9607 198.899 36.4628C197.676 35.965 196.454 35.6805 195.232 35.6805C193.578 35.6805 192.356 36.0361 191.565 36.8185C190.775 37.6008 190.343 38.3832 190.343 39.3789C190.343 40.3746 190.775 41.0859 191.709 41.6549C192.572 42.2239 193.722 42.6506 195.016 42.9351C196.31 43.2196 197.605 43.6463 198.899 44.0731C200.193 44.4998 201.271 45.2822 202.134 46.4202C202.997 47.487 203.5 48.9095 203.5 50.6876C203.5 52.8213 202.709 54.5283 201.127 55.8085C199.546 57.0887 197.389 57.6577 194.585 57.6577C192.141 57.6577 190.127 57.231 188.402 56.3775C186.605 55.4529 185.742 54.5994 185.742 53.6748Z" fill="#FAFAFA"/>
</svg>
